<svg width="10" height="11" viewBox="0 0 10 11" fill="none" xmlns="http://www.w3.org/2000/svg">
<path d="M9.42289 7.87197L9.45115 0.762976L2.36145 1.28707C2.28765 1.28269 2.21246 1.29444 2.14097 1.32153C2.06947 1.34863 2.00335 1.39042 1.94707 1.44409C1.89079 1.49776 1.84567 1.56205 1.81476 1.63261C1.78385 1.70317 1.76787 1.77835 1.76792 1.85306C1.76796 1.92777 1.78401 2.00028 1.815 2.06565C1.84598 2.13103 1.89117 2.18777 1.94751 2.23201C2.00384 2.27626 2.07001 2.30698 2.14153 2.3221C2.21304 2.33723 2.28824 2.3364 2.36203 2.31967L7.67465 1.93526L0.590018 9.5326C0.491797 9.63793 0.436108 9.77485 0.435199 9.91325C0.434291 10.0516 0.488239 10.1802 0.585175 10.2706C0.682112 10.361 0.814097 10.4058 0.952094 10.3953C1.09009 10.3847 1.2228 10.3196 1.32102 10.2143L8.40565 2.61692L8.39277 7.94342C8.39234 8.08186 8.44679 8.21024 8.54413 8.30031C8.64147 8.39038 8.77372 8.43477 8.9118 8.42372C9.04987 8.41266 9.18246 8.34707 9.2804 8.24136C9.37833 8.13565 9.43358 7.99849 9.434 7.86005L9.42289 7.87197Z" fill="white"/>
</svg>
